<svg width="86" height="48" viewBox="0 0 86 48" fill="none" xmlns="http://www.w3.org/2000/svg">
<path d="M6.11844 29.5906L4.01333 26.1525L3.01691 27.1524V28.892C3.01691 29.7823 2.42747 30.3165 1.62753 30.3165C0.813556 30.3165 0.238159 29.7686 0.238159 28.892V18.3722C0.238159 17.4818 0.813556 16.9476 1.62753 16.9476C2.41344 16.9476 3.01691 17.4955 3.01691 18.3722V24.2074L6.00616 21.2076C6.34298 20.8789 6.6798 20.7282 7.07275 20.7282C7.66218 20.7282 8.18145 21.1665 8.18145 21.8103C8.18145 22.1938 8.06917 22.5089 7.74639 22.7965L5.93599 24.4402L8.44809 28.3304C8.60247 28.5769 8.67264 28.8372 8.67264 29.0838C8.67264 29.7823 8.08321 30.3165 7.3394 30.3165C6.84821 30.3302 6.41315 30.07 6.11844 29.5906Z" fill="#68768E"/>
<path d="M11.3952 27.7277C11.1707 27.0565 11.0724 26.4264 11.0724 25.5224C11.0724 24.6183 11.1707 23.9882 11.3952 23.317C11.9706 21.5911 13.4582 20.6323 15.5634 20.6323C17.6685 20.6323 19.1561 21.6048 19.7315 23.317C19.956 23.9882 20.0543 24.6183 20.0543 25.5224C20.0543 26.4264 19.956 27.0565 19.7315 27.7277C19.1561 29.4536 17.6685 30.4124 15.5634 30.4124C13.4582 30.4124 11.9706 29.4536 11.3952 27.7277ZM17.0369 27.0976C17.1773 26.6867 17.2194 26.1661 17.2194 25.5361C17.2194 24.8923 17.1773 24.3718 17.0369 23.9745C16.8124 23.317 16.3212 22.9335 15.5493 22.9335C14.7774 22.9335 14.2863 23.317 14.0617 23.9745C13.9214 24.3854 13.8793 24.906 13.8793 25.5361C13.8793 26.1798 13.9214 26.7004 14.0617 27.0976C14.2863 27.7551 14.7774 28.1386 15.5493 28.1386C16.3212 28.1386 16.8264 27.7551 17.0369 27.0976Z" fill="#68768E"/>
<path d="M27.0994 30.3302C24.896 30.3302 24.1522 29.2618 24.1522 27.3578V18.3859C24.1522 17.4955 24.7276 16.9613 25.5416 16.9613C26.3275 16.9613 26.931 17.5092 26.931 18.3859V27.125C26.931 27.6729 27.1274 27.892 27.5625 27.9742C28.3484 28.1112 28.6712 28.5495 28.6712 29.1522C28.6712 29.8097 28.2361 30.3302 27.2257 30.3302H27.0994Z" fill="#68768E"/>
<path fill-rule="evenodd" clip-rule="evenodd" d="M67.1105 22.9198C66.3386 22.9198 65.8474 23.3033 65.6229 23.9608C65.4825 24.3717 65.4404 24.8922 65.4404 25.5223C65.4404 26.1661 65.4825 26.6866 65.6229 27.0839C65.8474 27.7414 66.3386 28.1249 67.1105 28.1249C67.8824 28.1249 68.3735 27.7414 68.5981 27.0839C68.7384 26.6729 68.7805 26.1524 68.7805 25.5223C68.7805 24.8786 68.7384 24.358 68.5981 23.9608C68.3735 23.3033 67.8824 22.9198 67.1105 22.9198Z" fill="#68768E"/>
<path fill-rule="evenodd" clip-rule="evenodd" d="M75.8538 10.4823C62.9705 -1.20179 41.1334 -5.62614 33.1481 11.4685C20.8682 37.727 47.5611 50.3151 67.1667 47.4934C75.152 46.3428 81.9445 42.6444 84.4847 36.2613C88.1055 27.1113 83.5865 17.4818 75.8538 10.4823ZM40.123 27.7277C39.5476 29.4536 38.06 30.4124 35.9549 30.4124C33.8498 30.4124 32.3621 29.4399 31.7868 27.7277C31.5622 27.0565 31.464 26.4264 31.464 25.5223C31.464 24.6183 31.5622 23.9882 31.7868 23.317C32.3621 21.5911 33.8498 20.6323 35.9549 20.6323C38.06 20.6323 39.5476 21.6048 40.123 23.317C40.3475 23.9882 40.4458 24.6183 40.4458 25.5223C40.4317 26.4401 40.3335 27.0565 40.123 27.7277ZM46.9716 28.892C46.9716 29.7823 46.3822 30.3165 45.5822 30.3165C44.7683 30.3165 44.1929 29.7686 44.1929 28.892V22.1664C44.1929 21.2761 44.7683 20.7282 45.5822 20.7282C46.3682 20.7282 46.9716 21.2761 46.9716 22.1664V28.892ZM45.5822 19.8926C44.7121 19.8926 44.0104 19.2214 44.0104 18.3585C44.0104 17.5092 44.6981 16.8243 45.5822 16.8243C46.4524 16.8243 47.1541 17.4955 47.1541 18.3585C47.14 19.2214 46.4524 19.8926 45.5822 19.8926ZM58.3112 30.3302C57.7919 30.3302 57.3568 30.0837 57.0621 29.5906L54.957 26.1524L53.9606 27.1524V28.892C53.9606 29.7823 53.3712 30.3165 52.5712 30.3165C51.7572 30.3165 51.1818 29.7686 51.1818 28.892V18.3722C51.1818 17.4818 51.7572 16.9476 52.5712 16.9476C53.3571 16.9476 53.9606 17.4955 53.9606 18.3722V24.2074L56.9499 21.2076C57.2867 20.8788 57.6235 20.7282 58.0164 20.7282C58.6059 20.7282 59.1251 21.1665 59.1251 21.8103C59.1251 22.1938 59.0129 22.5089 58.6901 22.7965L56.8797 24.4402L59.3918 28.3304C59.5462 28.5769 59.6163 28.8372 59.6163 29.0837C59.6444 29.7823 59.055 30.3302 58.3112 30.3302ZM71.2646 27.7277C70.6892 29.4536 69.2016 30.4124 67.0965 30.4124C64.9914 30.4124 63.5038 29.4399 62.9284 27.7277C62.7038 27.0565 62.6056 26.4264 62.6056 25.5223C62.6056 24.6183 62.7038 23.9882 62.9284 23.317C63.5038 21.5911 64.9914 20.6323 67.0965 20.6323C69.2016 20.6323 70.6892 21.6048 71.2646 23.317C71.4892 23.9882 71.5874 24.6183 71.5874 25.5223C71.5874 26.4401 71.4892 27.0565 71.2646 27.7277ZM78.4501 30.4261C76.9484 30.4261 75.7415 30.0152 74.9415 29.5358C74.4644 29.2481 74.2679 28.892 74.2679 28.4536C74.2679 27.8509 74.7872 27.3715 75.4187 27.3715C75.6713 27.3715 75.9099 27.4537 76.2327 27.6181C76.9203 28.0016 77.6642 28.2893 78.5904 28.2893C79.6009 28.2893 80.078 27.9468 80.078 27.4126C80.078 26.9743 79.8254 26.7414 78.6886 26.6182L77.6361 26.5086C75.559 26.2757 74.5065 25.2758 74.5065 23.6458C74.5065 21.8103 75.952 20.6323 78.4641 20.6323C79.5307 20.6323 80.5692 20.8514 81.3832 21.2487C81.9165 21.5226 82.1972 21.8514 82.1972 22.3171C82.1972 22.9198 81.7621 23.3855 81.1025 23.3855C80.906 23.3855 80.6815 23.3307 80.3166 23.1527C79.7272 22.8787 79.0676 22.7417 78.3799 22.7417C77.5238 22.7417 77.173 23.0294 77.173 23.4814C77.173 23.906 77.4115 24.1389 78.5062 24.2485L79.5587 24.358C81.8182 24.6046 82.7445 25.6319 82.7445 27.2072C82.7304 29.1248 81.1586 30.4261 78.4501 30.4261Z" fill="#68768E"/>
<path fill-rule="evenodd" clip-rule="evenodd" d="M35.9548 22.9198C35.183 22.9198 34.6918 23.3033 34.4672 23.9608C34.3269 24.3717 34.2848 24.8922 34.2848 25.5223C34.2848 26.1661 34.3269 26.6866 34.4672 27.0839C34.6918 27.7414 35.183 28.1249 35.9548 28.1249C36.7267 28.1249 37.2179 27.7414 37.4425 27.0839C37.5828 26.6729 37.6249 26.1524 37.6249 25.5223C37.6249 24.8786 37.5828 24.358 37.4425 23.9608C37.232 23.3033 36.7267 22.9198 35.9548 22.9198Z" fill="#68768E"/>
</svg>
